# xmcd
# Track frame offsets:
# 150
# 14332
# 31017
# 46132
# 64922
# 81485
# 94245
# 108010
# 124407
# 139215
# 156392
# 167295
# 184787
#
# Disc length: 2623 seconds
# Revision: 0
# Processed by: cddbd v1.4PL0 Copyright (c) Steve Scherf et al.
# Submitted via: VisiTrax 2.9.5.180 - For more info visit www.synapsa.com
#
DISCID=a70a3d0d
DTITLE=Anni Filt - Dream catcher
DYEAR=1900
DGENRE=
TTITLE0=Leaving Alabama
TTITLE1=Looking for love
TTITLE2=Walking away a winner
TTITLE3=He's a wild one
TTITLE4=Love at the five and dime
TTITLE5=Guitars need love too
TTITLE6=Missing you
TTITLE7=Bittersweet surrender
TTITLE8=Everlasting love
TTITLE9=My everyday life
TTITLE10=It doesn't matter anymore
TTITLE11=Past the point of rescue
TTITLE12=Don't cry daddy
EXTD=
EXTT0=
EXTT1=
EXTT2=
EXTT3=
EXTT4=
EXTT5=
EXTT6=
EXTT7=
EXTT8=
EXTT9=
EXTT10=
EXTT11=
EXTT12=
PLAYORDER=
